<svg viewBox="0 0 200 200" xmlns="http://www.w3.org/2000/svg">
  <!-- Outer circle -->
  <circle cx="100" cy="100" r="95" fill="none" stroke="#FF0000" stroke-width="2"/>
  
  <!-- Top red curved section (bird head/wings up) -->
  <path d="M 60 70 Q 50 50 70 40 Q 85 35 100 40 Q 115 35 130 40 Q 150 50 140 70 Z" fill="#FF0000"/>
  
  <!-- Left red curved wing -->
  <path d="M 60 70 Q 40 85 50 110 Q 60 100 75 95 Z" fill="#FF0000"/>
  
  <!-- Right red curved wing -->
  <path d="M 140 70 Q 160 85 150 110 Q 140 100 125 95 Z" fill="#FF0000"/>
  
  <!-- Bottom left black section -->
  <path d="M 60 120 Q 50 140 70 150 Q 85 155 100 150 Q 90 140 85 120 Z" fill="#1a1a1a"/>
  
  <!-- Bottom right black section -->
  <path d="M 140 120 Q 150 140 130 150 Q 115 155 100 150 Q 110 140 115 120 Z" fill="#1a1a1a"/>
  
  <!-- White center dividing line -->
  <line x1="100" y1="40" x2="100" y2="150" stroke="white" stroke-width="2"/>
  
  <!-- Additional detail lines -->
  <path d="M 75 115 Q 100 120 125 115" stroke="#FF0000" stroke-width="1.5" fill="none"/>
</svg>