<svg viewBox="0 0 256 256" xmlns="http://www.w3.org/2000/svg">
  <!-- Red top sections (open book/wings) -->
  <path d="M 40 50 Q 40 80 80 100 Q 70 80 70 50 Z" fill="#FF3333"/>
  <path d="M 216 50 Q 216 80 176 100 Q 186 80 186 50 Z" fill="#FF3333"/>
  
  <!-- Yellow circle (center top) -->
  <circle cx="128" cy="40" r="12" fill="#FFD700"/>
  
  <!-- Red vertical sections -->
  <path d="M 110 50 Q 110 60 118 70 L 118 50 Z" fill="#FF3333"/>
  <path d="M 146 50 Q 146 60 138 70 L 138 50 Z" fill="#FF3333"/>
  
  <!-- Black bottom left section (curved) -->
  <path d="M 40 120 Q 40 150 80 170 Q 70 150 70 120 Z" fill="#2D2D2D"/>
  
  <!-- Black bottom right section (curved) -->
  <path d="M 216 120 Q 216 150 176 170 Q 186 150 186 120 Z" fill="#2D2D2D"/>
  
  <!-- White dividing lines -->
  <line x1="128" y1="50" x2="128" y2="180" stroke="white" stroke-width="4"/>
  <path d="M 100 140 Q 128 145 156 140" stroke="white" stroke-width="3" fill="none"/>
  <path d="M 105 160 Q 128 163 151 160" stroke="white" stroke-width="2" fill="none"/>
  <path d="M 110 175 Q 128 177 146 175" stroke="white" stroke-width="1.5" fill="none"/>
</svg>